# xmcd CD database file
#
# Track frame offsets:
#	150
#	16685
#	42946
#	70681
#	99117
#	124040
#	150025
#	171998
#	198884
#	223257
#
# Disc length: 3404 seconds
#
# Revision: 1
# Processed by: cddbd v1.5.2PL0 Copyright (c) Steve Scherf et al.
# Submitted via: CDex 1.51
#
DISCID=730d4a0a
DTITLE=Various Artist - my first jazz-lovers tears jazz
DYEAR=1997
DGENRE=Jazz
TTITLE0=Close To You -- Kimiko Itoh
TTITLE1=Charade -- Fred Karlin
TTITLE2=En Aranjues Con Tu Amor -- Charlie Mariano
TTITLE3=Heaven Can Wait -- Fred Karlin
TTITLE4=That's What Friend Are for -- Tom Brone
TTITLE5=Udama -- Luis Conte
TTITLE6=For My Mother -- Urbanator
TTITLE7=Autumn In New York -- Phil Woods, Vincent Herring, Antonio Heart
TTITLE8=All The Time Your -- Phil Woods, Vincent Herring, Antonio Heart
TTITLE9=Cry Me A River -- Benny Golson
EXTD=YEAR: 1997
EXTT0=
EXTT1=
EXTT2=
EXTT3=
EXTT4=
EXTT5=
EXTT6=
EXTT7=
EXTT8=
EXTT9=
PLAYORDER=
